inDegrees=yes
name=ik_S55_A12_T01
DataType=double
version=3
OpenSimVersion=4.3-2021-08-27-4bc7ad9
endheader
time	pelvis_tilt	pelvis_list	pelvis_rotation	pelvis_tx	pelvis_ty	pelvis_tz	hip_flexion_r	hip_adduction_r	hip_rotation_r	knee_angle_r	knee_angle_r_beta	ankle_angle_r	subtalar_angle_r	mtp_angle_r	hip_flexion_l	hip_adduction_l	hip_rotation_l	knee_angle_l	knee_angle_l_beta	ankle_angle_l	subtalar_angle_l	mtp_angle_l	lumbar_extension	lumbar_bending	lumbar_rotation	arm_flex_r	arm_add_r	arm_rot_r	elbow_flex_r	pro_sup_r	wrist_flex_r	wrist_dev_r	arm_flex_l	arm_add_l	arm_rot_l	elbow_flex_l	pro_sup_l	wrist_flex_l	wrist_dev_l
11.43999999999984	-0.4541869594067925	1.086415433363617	33.71284105200373	0	0.9399999999999999	0	30.83634569105961	-9.376513896199436	-8.68207826790565	34.87866901629712	0.6087476130477165	0	0	0	30.83634569105961	-9.376513896199436	-8.68207826790565	34.87866901629712	0.6087476130477165	0	0	0	0.3414678416425828	1.253060585876603	9.527709456329617	1.366888285664877	-6.762404925843704	-2.322539896690972	9.659430343195449	101.5983785899537	0	0	97.0009611968066	-14.80614680719805	16.34011830846308	19.63196109588752	102.7913464821631	0	0
11.45999999999984	-0.4817206990575404	1.078550272184926	33.65767305378076	0	0.9399999999999999	0	30.84106902781978	-9.377212942732903	-8.683027389368544	34.88346755142449	0.6088313632849618	0	0	0	30.84106902781978	-9.377212942732903	-8.683027389368544	34.88346755142449	0.6088313632849618	0	0	0	0.3139563252602336	1.262037597774513	9.541325406704889	1.429015223481172	-6.762986506791995	-2.275692799602394	9.652444077564057	101.4792995135002	0	0	97.27228427038588	-14.64256164587111	16.68467230091127	19.4144075010748	102.5907520794035	0	0
11.47999999999984	-0.4875999834769312	1.073501832261824	33.60130288904544	0	0.9399999999999999	0	30.84618832615267	-9.37797227778381	-8.684057652521201	34.88865547657656	0.6089219096602123	0	0	0	30.84618832615267	-9.37797227778381	-8.684057652521201	34.88865547657656	0.6089219096602123	0	0	0	0.305969969543565	1.261348500971357	9.555998758657788	1.45451565501558	-6.74018433986508	-2.246041862271491	9.63501273692742	101.34222231985	0	0	97.41956262095327	-14.43001813649797	16.94149340824097	19.29266128890594	102.3590149795143	0	0
11.49999999999984	-0.5051090985601597	1.065498686617973	33.53740732197041	0	0.9399999999999999	0	30.84976499935245	-9.378502251357324	-8.684777070245493	34.89228135653994	0.6089851932038554	0	0	0	30.84976499935245	-9.378502251357324	-8.684777070245493	34.89228135653994	0.6089851932038554	0	0	0	0.2868288433726263	1.26444683964143	9.561269827278846	1.464407988922563	-6.744307197144196	-2.219161957208464	9.669469277068982	101.2752441824598	0	0	97.52161881489592	-14.18871557065255	16.94356951653047	19.37046348291793	102.5014741969299	0	0
11.51999999999984	-0.5265386807260735	1.0522375274068	33.46801732310276	0	0.9399999999999999	0	30.85479563667591	-9.379248196914077	-8.685789521040638	34.89737512131017	0.609074096170418	0	0	0	30.85479563667591	-9.379248196914077	-8.685789521040638	34.89737512131017	0.609074096170418	0	0	0	0.261544226136651	1.265267459339163	9.561916565502134	1.493369228069404	-6.767493836559296	-2.241299516317012	9.714937402752835	101.2780773203547	0	0	97.66377734244915	-13.98168876519937	16.99156777249573	19.28604491331244	102.8132639254966	0	0
11.53999999999984	-0.541693679885752	1.062899162814797	33.4160089847569	0	0.9399999999999999	0	30.85750240925045	-9.379646766438963	-8.686331898746714	34.90013156301872	0.6091222051538715	5.38806921148701e-36	0	0	30.85750240925045	-9.379646766438963	-8.686331898746714	34.90013156301872	0.6091222051538715	5.38806921148701e-36	0	0	0.2543804134137658	1.282883777839684	9.586159519179139	1.496766607495563	-6.816424190871397	-2.287139184867216	9.726009412014324	101.289033568379	0	0	97.76376995673493	-13.75500401785608	17.29295477322547	19.18418800509222	102.7021524922819	0	0
11.55999999999984	-0.5592033397625505	1.048107020985481	33.35771446348986	0	0.9399999999999999	0	30.86206721506293	-9.380320365121021	-8.687247947610462	34.90476869374692	0.6092031383529241	0	0	0	30.86206721506293	-9.380320365121021	-8.687247947610462	34.90476869374692	0.6092031383529241	0	0	0	0.2311182899267326	1.280623652730518	9.614364754981159	1.543466290348653	-6.775465330184481	-2.280023618784696	9.743124581888605	101.2188349713392	0	0	97.93786643815864	-13.51286896537817	17.76580018566997	19.0681925680541	102.3207365855641	0	0
11.57999999999984	-0.5880722449355058	1.046817762017241	33.26969385902878	0	0.9399999999999999	0	30.8669208446832	-9.381037581684801	-8.688222929682494	34.90969063320024	0.6092890424019684	0	0	0	30.8669208446832	-9.381037581684801	-8.688222929682494	34.90969063320024	0.6092890424019684	0	0	0	0.2063632194152982	1.295322768270572	9.608314367683862	1.607649500377237	-6.767069599767881	-2.145999906166186	9.752253470236338	101.1014483472418	0	0	98.07906607089451	-13.30570928604653	18.03350400151104	18.93986185816458	102.0946705179882	0	0
11.59999999999984	-0.5915236697494803	1.051903300235486	33.23399117665338	0	0.9399999999999999	0	30.87079338057541	-9.381607980059467	-8.688999320519502	34.91362660832605	0.6093577381271902	0	0	0	30.87079338057541	-9.381607980059467	-8.688999320519502	34.91362660832605	0.6093577381271902	0	0	0	0.2054156230745113	1.302210186760362	9.660722115606566	1.615472063628271	-6.756715116148391	-2.172486400356617	9.753548162378101	101.005928046308	0	0	98.18106508846859	-12.99075968522674	18.20892997198959	18.86244270150019	101.6201150448341	0	0
11.61999999999984	-0.624309551261724	1.035906950281651	33.07102531422381	0	0.9399999999999999	0	30.87431781210888	-9.382127174905566	-8.689706043548265	34.91720685203017	0.6094202251678509	0	0	0	30.87431781210888	-9.382127174905566	-8.689706043548265	34.91720685203017	0.6094202251678509	0	0	0	0.1703053225580069	1.305807654091684	9.586911807038209	1.735895533286581	-6.744552171725307	-1.983788540781954	9.77527052041188	101.0364436681821	0	0	98.34650400843466	-13.05616769143548	18.3018739548197	18.88803883088867	101.911592138482	0	0
11.63999999999984	-0.630415706501004	1.053218857612845	32.94054746713396	0	0.9399999999999999	0	30.87795277132719	-9.38266327444083	-8.690435551849085	34.92089365821884	0.6094845720747262	0	0	0	30.87795277132719	-9.38266327444083	-8.690435551849085	34.92089365821884	0.6094845720747262	0	0	0	0.1754412079761094	1.32305388840542	9.529958194959402	1.770606247556226	-6.760085776233197	-1.910672043385925	9.77112331699756	101.0839776288728	0	0	98.3707684892959	-13.10917410759664	18.16622506473925	18.92560873375698	102.2500587634043	0	0
11.65999999999984	-0.6331769840648639	1.052849889512073	32.91982598608611	0	0.9399999999999999	0	30.88043141850815	-9.383027117394429	-8.690931539419626	34.92341712943058	0.6095286149559503	0	0	0	30.88043141850815	-9.383027117394429	-8.690931539419626	34.92341712943058	0.6095286149559503	0	0	0	0.1725905480041106	1.324505111665669	9.549554168483546	1.782843982177583	-6.763058148446489	-2.088097159615864	9.78027753275564	101.0891837101618	0	0	98.36728150872329	-13.09994745239939	18.16988820938422	18.9866960299277	102.3932840881157	0	0
11.67999999999984	-0.6617359804541092	1.061616386797626	32.78221501001623	0	0.9399999999999999	0	30.88343956034667	-9.383470531307204	-8.691535128507175	34.9264675130647	0.6095818541938146	0	0	0	30.88343956034667	-9.383470531307204	-8.691535128507175	34.9264675130647	0.6095818541938146	0	0	0	0.1542955741761996	1.346543459967062	9.48622612791819	1.845686367692095	-6.821547832469816	-2.104978307339299	9.795934996108503	101.1244136800841	0	0	98.39006390651811	-13.17440334976015	18.18618041945639	19.13089663009286	102.5257413529344	0	0
11.69999999999984	-0.6710932355069575	1.071063079933184	32.72619708431103	0	0.9399999999999999	0	30.88803507629449	-9.384148092571541	-8.692457475453294	34.93112397062848	0.609663124709782	0	0	0	30.88803507629449	-9.384148092571541	-8.692457475453294	34.93112397062848	0.609663124709782	0	0	0	0.1517259261810039	1.35935726018517	9.470400447983305	1.85104052242039	-6.856600041572808	-2.214532989218764	9.793105492231723	101.3052159980629	0	0	98.36142993432662	-13.23369811959494	18.15831677525992	19.24586718454172	102.505991479637	0	0
11.71999999999984	-0.683111545115649	1.07306847890803	32.65852837617345	0	0.9399999999999999	0	30.89217627489833	-9.384758871946287	-8.693288915550568	34.9353164165492	0.6097362966948103	0	0	0	30.89217627489833	-9.384758871946287	-8.693288915550568	34.9353164165492	0.6097362966948103	0	0	0	0.1427589023496048	1.367437120443769	9.461791964483261	1.864012643264964	-6.859843574579672	-2.286434149423716	9.821358881286756	101.1011831550651	0	0	98.31950188273993	-13.09621437217925	18.13849208546756	19.39454077630702	102.4139334311589	0	0
11.73999999999984	-0.6901860588099143	1.068320048434122	32.58917016748019	0	0.9399999999999999	0	30.89734402332929	-9.385515693208349	-8.694321919464894	34.9405773874573	0.6098281179590084	0	0	0	30.89734402332929	-9.385515693208349	-8.694321919464894	34.9405773874573	0.6098281179590084	0	0	0	0.1340950458432446	1.367268270322484	9.461727526974117	1.87702940190305	-6.860244325866151	-2.205851784453359	9.846158376038755	100.9818489405358	0	0	98.24791050153729	-13.12424026519233	17.79874064314286	19.54613023965083	102.8079243038244	0	0
